# xmcd
#
# Track frame offsets:
#	150
#	14032
#	32657
#	44647
#	60612
#	73532
#	83710
#	95304
#	108965
#	123495
#	138240
#
# Disc length: 2099 seconds
# Revision: 4
# Processed by: cddbd v1.5.2PL0 Copyright (c) Steve Scherf et al.
# Submitted via: dBpowerAMP V12.0
#
DISCID=9208310b
DTITLE=Rick Treviño - Looking for the Light
DYEAR=1995
DGENRE=Country
TTITLE0=Full Deck of Cards
TTITLE1=Looking for the Light
TTITLE2=Family Reunion
TTITLE3=You Are to Me
TTITLE4=She Used to Say That to Me
TTITLE5=Poor, Broke, Mixed Up Mess of a Heart
TTITLE6=I Want a Girl in a Pick-up Truck
TTITLE7=Save This One for Me
TTITLE8=The Pain
TTITLE9=Bobbie Ann Mason
TTITLE10=San Antonio Rose to You
EXTD=
EXTT0=
EXTT1=
EXTT2=
EXTT3=
EXTT4=
EXTT5=
EXTT6=
EXTT7=
EXTT8=
EXTT9=
EXTT10=
PLAYORDER=
